<?xml version="1.0" encoding="utf-8"?>
<!-- Generator: Adobe Illustrator 19.2.1, SVG Export Plug-In . SVG Version: 6.00 Build 0)  -->
<!DOCTYPE svg PUBLIC "-//W3C//DTD SVG 1.1//EN" "http://www.w3.org/Graphics/SVG/1.1/DTD/svg11.dtd">
<svg version="1.1" id="Capa_1" xmlns="http://www.w3.org/2000/svg" xmlns:xlink="http://www.w3.org/1999/xlink" x="0px" y="0px"
	 viewBox="0 0 512 279.3" style="enable-background:new 0 0 512 279.3;" xml:space="preserve">
<style type="text/css">
	.st0{fill:#FFFFFF;}
</style>
<path class="st0" d="M394.2,254.3L279.6,139.6L394.2,25c1.8-1.8,1.8-4.8,0-6.6l-17-17c-1.8-1.8-4.7-1.9-6.6,0L256,116L141.4,1.4
	c-1.8-1.8-4.8-1.8-6.6,0l-17,17c-1.8,1.8-1.9,4.7,0,6.6l114.6,114.6L117.8,254.3c-1.8,1.8-1.8,4.8,0,6.6l17,17
	c1.8,1.8,4.7,1.9,6.6,0L256,163.3l114.6,114.6c1.8,1.8,4.8,1.8,6.6,0l17-17C396.1,259,396.2,256.2,394.2,254.3z"/>
</svg>
