<?xml version="1.0" encoding="utf-8"?>
<!-- Generator: Adobe Illustrator 19.1.0, SVG Export Plug-In . SVG Version: 6.00 Build 0)  -->
<!DOCTYPE svg PUBLIC "-//W3C//DTD SVG 1.1//EN" "http://www.w3.org/Graphics/SVG/1.1/DTD/svg11.dtd">
<svg version="1.1" id="Layer_1" xmlns="http://www.w3.org/2000/svg" xmlns:xlink="http://www.w3.org/1999/xlink" x="0px" y="0px"
	 viewBox="-796.2 361.7 322.6 354.3" style="enable-background:new -796.2 361.7 322.6 354.3;" xml:space="preserve">
<style type="text/css">
	.st0{enable-background:new    ;}
	.st1{fill:#8F8F8F;}
	.st2{fill:#63C6F1;}
</style>
<g>
	<g class="st0">
		<path class="st1" d="M-737.1,629.3c0-4.6,0.8-8.8,2.4-12.5c1.6-3.8,3.8-7,6.5-9.7c2.8-2.7,6-4.8,9.9-6.3c3.8-1.5,8-2.3,12.5-2.3
			c4.5,0,8.7,0.8,12.5,2.3c3.8,1.5,7.1,3.6,9.9,6.3c2.8,2.7,4.9,5.9,6.5,9.7c1.6,3.8,2.4,7.9,2.4,12.5c0,4.6-0.8,8.8-2.4,12.5
			c-1.6,3.8-3.8,7-6.5,9.7c-2.8,2.7-6.1,4.8-9.9,6.3c-3.8,1.5-8,2.3-12.5,2.3c-4.5,0-8.7-0.8-12.5-2.3c-3.8-1.5-7.1-3.6-9.9-6.3
			c-2.8-2.7-4.9-5.9-6.5-9.7C-736.3,638-737.1,633.9-737.1,629.3z M-726.6,629.3c0,3.1,0.5,5.9,1.4,8.6c1,2.6,2.4,4.9,4.2,6.9
			c1.8,2,4,3.5,6.6,4.6c2.5,1.1,5.4,1.7,8.6,1.7c3.2,0,6-0.6,8.6-1.7c2.5-1.1,4.7-2.7,6.6-4.6c1.8-2,3.2-4.3,4.2-6.9
			c1-2.6,1.4-5.5,1.4-8.6c0-3.1-0.5-5.9-1.4-8.6c-1-2.6-2.4-4.9-4.2-6.9c-1.8-2-4-3.5-6.6-4.6c-2.5-1.1-5.4-1.7-8.6-1.7
			c-3.2,0-6,0.6-8.6,1.7c-2.5,1.1-4.7,2.7-6.6,4.6c-1.8,2-3.2,4.3-4.2,6.9C-726.1,623.3-726.6,626.2-726.6,629.3z"/>
		<path class="st1" d="M-669.2,613.9c0-2.7-0.1-5.2-0.3-7.5c-0.2-2.3-0.2-4.5-0.2-6.4h9.3c0,1.6,0,3.2,0.1,4.8
			c0.1,1.6,0.1,3.2,0.1,4.9h0.2c0.7-1.4,1.6-2.8,2.8-4.1c1.2-1.3,2.6-2.5,4.3-3.6c1.7-1,3.5-1.9,5.6-2.5c2.1-0.6,4.3-0.9,6.8-0.9
			c3.2,0,5.8,0.4,7.9,1.2c2.1,0.8,3.9,1.8,5.3,2.9c1.4,1.1,2.5,2.3,3.3,3.6c0.8,1.3,1.4,2.4,1.9,3.4c2.2-3.5,4.7-6.2,7.5-8.2
			c2.8-2,6.5-2.9,11-2.9c4.2,0,7.7,0.6,10.5,1.7c2.8,1.1,5.1,2.8,6.9,4.9c1.8,2.1,3,4.7,3.8,7.8c0.8,3,1.1,6.4,1.1,10.2v35.5h-9.8
			v-35c0-2-0.2-4-0.6-5.9c-0.4-1.9-1.2-3.6-2.3-5.1c-1.1-1.5-2.5-2.7-4.4-3.6c-1.8-0.9-4.2-1.4-7-1.4c-2.1,0-4,0.4-5.9,1.3
			c-1.8,0.8-3.4,2-4.8,3.5c-1.4,1.5-2.5,3.3-3.3,5.4c-0.8,2.1-1.2,4.5-1.2,7.1v33.8h-9.8v-33.2c0-6.5-0.9-11.1-2.6-13.8
			c-1.8-2.7-4.6-4.1-8.6-4.1c-3.2,0-5.9,0.5-8.2,1.6c-2.3,1.1-4.2,2.6-5.6,4.6c-1.5,2-2.5,4.4-3.3,7.1c-0.7,2.8-1.1,5.8-1.1,9.1
			v28.5h-9.8V613.9z"/>
		<path class="st1" d="M-571.3,643.2c1.9,2.4,4,4.3,6.3,5.8c2.3,1.4,5.2,2.1,8.7,2.1c1.5,0,3-0.2,4.6-0.5c1.5-0.3,2.9-0.9,4.2-1.6
			c1.3-0.8,2.3-1.7,3-2.8c0.8-1.1,1.1-2.5,1.1-4.1c0-1.6-0.4-2.9-1.1-3.9c-0.7-1-1.6-1.9-2.8-2.6c-1.2-0.7-2.5-1.3-4-1.7
			c-1.5-0.4-3-0.8-4.6-1.1c-2.8-0.6-5.4-1.3-7.9-2c-2.5-0.8-4.7-1.7-6.6-2.9c-1.9-1.2-3.4-2.8-4.5-4.7c-1.1-1.9-1.7-4.4-1.7-7.4
			c0-2.8,0.6-5.3,1.9-7.5c1.3-2.2,2.9-4,5-5.4c2.1-1.4,4.4-2.5,7-3.3c2.6-0.8,5.3-1.1,8-1.1c4.2,0,8,0.8,11.6,2.5
			c3.5,1.7,6.3,4.4,8.3,8.1l-8.1,5.4c-1.3-2.1-2.9-3.8-4.9-5.1c-2-1.3-4.5-1.9-7.4-1.9c-1.3,0-2.7,0.2-4.1,0.5
			c-1.4,0.3-2.6,0.8-3.7,1.5c-1.1,0.7-2,1.5-2.7,2.6c-0.7,1-1.1,2.2-1.1,3.6c0,1.3,0.4,2.3,1.2,3.2c0.8,0.9,1.9,1.6,3.3,2.3
			c1.4,0.7,3,1.3,4.8,1.8c1.8,0.5,3.6,0.9,5.6,1.3c2.6,0.5,5,1.1,7.4,1.9c2.3,0.8,4.4,1.9,6.1,3.2c1.8,1.3,3.1,3,4.1,5
			c1,2,1.5,4.5,1.5,7.4c0,3.3-0.7,6.2-2,8.5c-1.3,2.3-3.1,4.2-5.3,5.7c-2.2,1.5-4.7,2.5-7.5,3.2c-2.8,0.7-5.7,1-8.6,1
			c-5,0-9.3-0.8-13-2.3c-3.6-1.5-6.9-4.4-9.8-8.6L-571.3,643.2z"/>
	</g>
	<g class="st0">
		<path class="st1" d="M-786,710.4c-1.4,0-2.6-0.2-3.8-0.7c-1.1-0.5-2.1-1.1-3-2s-1.5-1.8-2-3c-0.5-1.2-0.7-2.4-0.7-3.8
			c0-1.4,0.2-2.6,0.7-3.8c0.5-1.2,1.1-2.2,2-3s1.8-1.5,3-2s2.4-0.7,3.8-0.7s2.6,0.2,3.8,0.7s2.1,1.1,3,2c0.8,0.8,1.5,1.8,2,3
			c0.5,1.2,0.7,2.4,0.7,3.8c0,1.4-0.2,2.6-0.7,3.8c-0.5,1.2-1.1,2.2-2,3c-0.8,0.8-1.8,1.5-3,2C-783.4,710.2-784.7,710.4-786,710.4z
			 M-786,708.4c1.1,0,2-0.2,2.9-0.6c0.9-0.4,1.6-0.9,2.2-1.6s1.1-1.5,1.5-2.4c0.3-0.9,0.5-1.9,0.5-2.9c0-1-0.2-2-0.5-2.9
			c-0.3-0.9-0.8-1.7-1.5-2.4c-0.6-0.7-1.4-1.2-2.2-1.6c-0.9-0.4-1.8-0.6-2.9-0.6c-1.1,0-2,0.2-2.9,0.6c-0.9,0.4-1.6,0.9-2.2,1.6
			c-0.6,0.7-1.1,1.5-1.5,2.4c-0.3,0.9-0.5,1.9-0.5,2.9c0,1,0.2,2,0.5,2.9c0.3,0.9,0.8,1.7,1.5,2.4s1.4,1.2,2.2,1.6
			C-788.1,708.2-787.1,708.4-786,708.4z"/>
		<path class="st1" d="M-773.6,700.9c0-0.5,0-1.1-0.1-1.5c0-0.5-0.1-0.9-0.1-1.3h1.9c0,0.3,0,0.6,0,1c0,0.3,0,0.7,0,1h0.1
			c0.1-0.3,0.3-0.6,0.6-0.8s0.5-0.5,0.9-0.7c0.3-0.2,0.7-0.4,1.1-0.5c0.4-0.1,0.9-0.2,1.4-0.2c0.8,0,1.5,0.1,2,0.4
			c0.6,0.2,1,0.6,1.4,1c0.4,0.4,0.6,0.9,0.8,1.5c0.2,0.6,0.3,1.3,0.3,2v7.3h-2v-7.1c0-1-0.2-1.8-0.7-2.4c-0.4-0.6-1.1-0.9-2.1-0.9
			c-0.6,0-1.2,0.1-1.7,0.3s-0.8,0.5-1.1,0.9s-0.5,0.9-0.7,1.4c-0.1,0.6-0.2,1.2-0.2,1.9v5.8h-2V700.9z"/>
		<path class="st1" d="M-759.2,690.7h2v19.2h-2V690.7z"/>
		<path class="st1" d="M-753.6,693.4c0-0.4,0.1-0.7,0.4-1c0.3-0.3,0.6-0.4,1-0.4s0.8,0.1,1,0.4c0.3,0.3,0.4,0.6,0.4,1
			c0,0.4-0.1,0.8-0.4,1c-0.3,0.3-0.6,0.4-1,0.4c-0.4,0-0.8-0.1-1-0.4C-753.4,694.2-753.6,693.8-753.6,693.4z M-753.1,698h2v11.9h-2
			V698z"/>
		<path class="st1" d="M-747.2,700.9c0-0.5,0-1.1-0.1-1.5c0-0.5-0.1-0.9-0.1-1.3h1.9c0,0.3,0,0.6,0,1c0,0.3,0,0.7,0,1h0.1
			c0.1-0.3,0.3-0.6,0.6-0.8s0.5-0.5,0.9-0.7c0.3-0.2,0.7-0.4,1.1-0.5c0.4-0.1,0.9-0.2,1.4-0.2c0.8,0,1.5,0.1,2,0.4
			c0.6,0.2,1,0.6,1.4,1c0.4,0.4,0.6,0.9,0.8,1.5c0.2,0.6,0.3,1.3,0.3,2v7.3h-2v-7.1c0-1-0.2-1.8-0.7-2.4c-0.4-0.6-1.1-0.9-2.1-0.9
			c-0.6,0-1.2,0.1-1.7,0.3s-0.8,0.5-1.1,0.9s-0.5,0.9-0.7,1.4c-0.1,0.6-0.2,1.2-0.2,1.9v5.8h-2V700.9z"/>
		<path class="st1" d="M-722.4,707.8c-0.7,0.9-1.5,1.6-2.3,1.9c-0.8,0.4-1.8,0.5-2.9,0.5c-0.9,0-1.8-0.2-2.5-0.5
			c-0.7-0.3-1.4-0.8-1.9-1.3s-0.9-1.2-1.2-2c-0.3-0.8-0.4-1.6-0.4-2.4c0-0.9,0.2-1.8,0.5-2.5c0.3-0.8,0.7-1.4,1.3-2
			c0.5-0.6,1.2-1,1.9-1.3c0.7-0.3,1.6-0.5,2.4-0.5c0.8,0,1.6,0.1,2.3,0.4c0.7,0.3,1.3,0.7,1.8,1.2c0.5,0.5,0.9,1.2,1.2,2
			c0.3,0.8,0.4,1.6,0.4,2.6v0.6h-9.6c0,0.5,0.2,1,0.4,1.5c0.2,0.5,0.5,0.9,0.8,1.2c0.3,0.3,0.7,0.6,1.2,0.8c0.5,0.2,1,0.3,1.5,0.3
			c0.9,0,1.6-0.2,2.2-0.5c0.6-0.3,1.1-0.8,1.6-1.3L-722.4,707.8z M-724.1,702.9c0-1-0.4-1.8-1-2.4c-0.6-0.6-1.5-0.9-2.6-0.9
			c-1.1,0-2,0.3-2.7,0.9c-0.7,0.6-1.1,1.4-1.2,2.4H-724.1z"/>
		<path class="st1" d="M-711.5,691.9h3.2l6.1,14.1h0.1l6.2-14.1h3.1v18h-2.1v-15.1h-0.1l-6.5,15.1h-1.3l-6.5-15.1h-0.1v15.1h-2.1
			V691.9z"/>
		<path class="st1" d="M-688.9,699.6c0.6-0.6,1.3-1.1,2.2-1.4c0.8-0.3,1.7-0.4,2.6-0.4c1.8,0,3,0.4,3.8,1.2c0.8,0.8,1.2,2.1,1.2,3.8
			v5.1c0,0.3,0,0.7,0.1,1.1c0,0.4,0.1,0.7,0.1,1h-1.9c-0.1-0.3-0.1-0.6-0.1-0.9c0-0.3,0-0.6,0-0.9h-0.1c-0.4,0.6-0.9,1.1-1.6,1.5
			c-0.7,0.4-1.4,0.6-2.4,0.6c-0.6,0-1.2-0.1-1.7-0.2c-0.5-0.2-1-0.4-1.4-0.7c-0.4-0.3-0.7-0.7-1-1.1s-0.4-0.9-0.4-1.5
			c0-1,0.3-1.8,0.8-2.3c0.5-0.6,1.1-1,1.9-1.2c0.8-0.3,1.6-0.4,2.4-0.5c0.9-0.1,1.7-0.1,2.4-0.1h0.8v-0.4c0-0.9-0.3-1.5-0.8-2
			c-0.5-0.4-1.2-0.7-2.2-0.7c-0.6,0-1.3,0.1-1.9,0.3s-1.2,0.5-1.6,1L-688.9,699.6z M-683.2,704.2c-1.3,0-2.3,0.2-3,0.5
			c-0.7,0.4-1.1,0.9-1.1,1.8c0,0.7,0.2,1.3,0.8,1.6c0.5,0.3,1.1,0.5,1.9,0.5c0.6,0,1.1-0.1,1.5-0.3s0.8-0.5,1.1-0.8s0.5-0.7,0.7-1.1
			c0.2-0.4,0.2-0.9,0.3-1.4v-0.8H-683.2z"/>
		<path class="st1" d="M-675.6,700.9c0-0.5,0-1.1-0.1-1.5c0-0.5-0.1-0.9-0.1-1.3h1.9c0,0.3,0,0.6,0,1c0,0.3,0,0.7,0,1h0.1
			c0.1-0.3,0.3-0.6,0.6-0.8s0.5-0.5,0.9-0.7c0.3-0.2,0.7-0.4,1.1-0.5c0.4-0.1,0.9-0.2,1.4-0.2c0.8,0,1.5,0.1,2,0.4
			c0.6,0.2,1,0.6,1.4,1c0.4,0.4,0.6,0.9,0.8,1.5c0.2,0.6,0.3,1.3,0.3,2v7.3h-2v-7.1c0-1-0.2-1.8-0.7-2.4c-0.4-0.6-1.1-0.9-2.1-0.9
			c-0.6,0-1.2,0.1-1.7,0.3s-0.8,0.5-1.1,0.9s-0.5,0.9-0.7,1.4c-0.1,0.6-0.2,1.2-0.2,1.9v5.8h-2V700.9z"/>
		<path class="st1" d="M-661.6,699.6c0.6-0.6,1.3-1.1,2.2-1.4c0.8-0.3,1.7-0.4,2.6-0.4c1.8,0,3,0.4,3.8,1.2c0.8,0.8,1.2,2.1,1.2,3.8
			v5.1c0,0.3,0,0.7,0.1,1.1c0,0.4,0.1,0.7,0.1,1h-1.9c-0.1-0.3-0.1-0.6-0.1-0.9c0-0.3,0-0.6,0-0.9h-0.1c-0.4,0.6-0.9,1.1-1.6,1.5
			c-0.7,0.4-1.4,0.6-2.4,0.6c-0.6,0-1.2-0.1-1.7-0.2c-0.5-0.2-1-0.4-1.4-0.7c-0.4-0.3-0.7-0.7-1-1.1s-0.4-0.9-0.4-1.5
			c0-1,0.3-1.8,0.8-2.3c0.5-0.6,1.1-1,1.9-1.2c0.8-0.3,1.6-0.4,2.4-0.5c0.9-0.1,1.7-0.1,2.4-0.1h0.8v-0.4c0-0.9-0.3-1.5-0.8-2
			c-0.5-0.4-1.2-0.7-2.2-0.7c-0.6,0-1.3,0.1-1.9,0.3s-1.2,0.5-1.6,1L-661.6,699.6z M-655.9,704.2c-1.3,0-2.3,0.2-3,0.5
			c-0.7,0.4-1.1,0.9-1.1,1.8c0,0.7,0.2,1.3,0.8,1.6c0.5,0.3,1.1,0.5,1.9,0.5c0.6,0,1.1-0.1,1.5-0.3s0.8-0.5,1.1-0.8s0.5-0.7,0.7-1.1
			c0.2-0.4,0.2-0.9,0.3-1.4v-0.8H-655.9z"/>
		<path class="st1" d="M-636.4,709.4c0,2.2-0.6,3.8-1.7,4.9c-1.1,1.1-2.7,1.7-4.8,1.7c-1.2,0-2.2-0.2-3.2-0.5
			c-0.9-0.3-1.8-0.9-2.7-1.8l1.4-1.6c0.6,0.7,1.3,1.2,2,1.5c0.7,0.3,1.5,0.5,2.4,0.5c0.9,0,1.6-0.1,2.2-0.4c0.6-0.3,1-0.6,1.4-1.1
			c0.3-0.4,0.6-1,0.7-1.5c0.1-0.6,0.2-1.2,0.2-1.8v-1.5h-0.1c-0.5,0.8-1.1,1.3-1.9,1.7c-0.8,0.4-1.5,0.5-2.3,0.5
			c-0.9,0-1.8-0.2-2.6-0.5c-0.8-0.3-1.4-0.7-2-1.3c-0.6-0.5-1-1.2-1.3-1.9c-0.3-0.7-0.5-1.6-0.5-2.4c0-1,0.2-1.8,0.5-2.6
			c0.3-0.8,0.7-1.4,1.3-2c0.6-0.5,1.2-0.9,2-1.2c0.8-0.3,1.6-0.4,2.6-0.4c0.4,0,0.8,0,1.2,0.1c0.4,0.1,0.8,0.2,1.2,0.4
			c0.4,0.2,0.7,0.4,1,0.7s0.6,0.6,0.8,1h0.1v-2h2V709.4z M-646.8,704c0,0.6,0.1,1.2,0.3,1.7c0.2,0.5,0.5,1,0.9,1.3
			c0.4,0.4,0.8,0.7,1.3,0.9c0.5,0.2,1.1,0.3,1.6,0.3c0.7,0,1.3-0.1,1.8-0.4c0.5-0.2,1-0.6,1.3-1c0.4-0.4,0.6-0.9,0.8-1.4
			c0.2-0.5,0.3-1.1,0.3-1.6c0-0.6-0.1-1.2-0.3-1.8c-0.2-0.5-0.5-1-0.9-1.4c-0.4-0.4-0.8-0.7-1.3-0.9s-1.1-0.3-1.7-0.3
			c-0.6,0-1.2,0.1-1.7,0.3c-0.5,0.2-1,0.5-1.3,0.9c-0.4,0.4-0.6,0.9-0.9,1.4C-646.7,702.8-646.8,703.4-646.8,704z"/>
		<path class="st1" d="M-622.1,707.8c-0.7,0.9-1.5,1.6-2.3,1.9s-1.8,0.5-2.9,0.5c-0.9,0-1.8-0.2-2.5-0.5c-0.7-0.3-1.4-0.8-1.9-1.3
			c-0.5-0.6-0.9-1.2-1.2-2s-0.4-1.6-0.4-2.4c0-0.9,0.2-1.8,0.5-2.5s0.7-1.4,1.3-2c0.5-0.6,1.2-1,1.9-1.3c0.7-0.3,1.6-0.5,2.4-0.5
			c0.8,0,1.6,0.1,2.3,0.4c0.7,0.3,1.3,0.7,1.8,1.2c0.5,0.5,0.9,1.2,1.2,2s0.4,1.6,0.4,2.6v0.6h-9.6c0,0.5,0.2,1,0.4,1.5
			c0.2,0.5,0.5,0.9,0.8,1.2c0.3,0.3,0.7,0.6,1.2,0.8c0.5,0.2,1,0.3,1.5,0.3c0.9,0,1.6-0.2,2.2-0.5c0.6-0.3,1.1-0.8,1.6-1.3
			L-622.1,707.8z M-623.8,702.9c0-1-0.4-1.8-1-2.4c-0.6-0.6-1.5-0.9-2.6-0.9s-2,0.3-2.7,0.9c-0.7,0.6-1.1,1.4-1.2,2.4H-623.8z"/>
		<path class="st1" d="M-618.6,700.9c0-0.5,0-1.1-0.1-1.5c0-0.5-0.1-0.9-0.1-1.3h1.9c0,0.3,0,0.6,0,1s0,0.7,0,1h0.1
			c0.1-0.3,0.3-0.6,0.6-0.8c0.2-0.3,0.5-0.5,0.9-0.7s0.7-0.4,1.1-0.5c0.4-0.1,0.9-0.2,1.4-0.2c0.6,0,1.2,0.1,1.6,0.2
			c0.4,0.2,0.8,0.4,1.1,0.6s0.5,0.5,0.7,0.7s0.3,0.5,0.4,0.7c0.4-0.7,0.9-1.3,1.5-1.7s1.3-0.6,2.2-0.6c0.8,0,1.6,0.1,2.1,0.3
			c0.6,0.2,1,0.6,1.4,1c0.4,0.4,0.6,1,0.8,1.6s0.2,1.3,0.2,2.1v7.2h-2v-7.1c0-0.4,0-0.8-0.1-1.2c-0.1-0.4-0.2-0.7-0.5-1
			c-0.2-0.3-0.5-0.6-0.9-0.7c-0.4-0.2-0.8-0.3-1.4-0.3c-0.4,0-0.8,0.1-1.2,0.3c-0.4,0.2-0.7,0.4-1,0.7c-0.3,0.3-0.5,0.7-0.7,1.1
			c-0.2,0.4-0.2,0.9-0.2,1.4v6.9h-2v-6.7c0-1.3-0.2-2.3-0.5-2.8c-0.4-0.5-0.9-0.8-1.8-0.8c-0.6,0-1.2,0.1-1.7,0.3
			c-0.5,0.2-0.8,0.5-1.1,0.9c-0.3,0.4-0.5,0.9-0.7,1.4c-0.1,0.6-0.2,1.2-0.2,1.9v5.8h-2V700.9z"/>
		<path class="st1" d="M-586.3,707.8c-0.7,0.9-1.5,1.6-2.3,1.9s-1.8,0.5-2.9,0.5c-0.9,0-1.8-0.2-2.5-0.5c-0.7-0.3-1.4-0.8-1.9-1.3
			c-0.5-0.6-0.9-1.2-1.2-2s-0.4-1.6-0.4-2.4c0-0.9,0.2-1.8,0.5-2.5s0.7-1.4,1.3-2c0.5-0.6,1.2-1,1.9-1.3c0.7-0.3,1.6-0.5,2.4-0.5
			c0.8,0,1.6,0.1,2.3,0.4c0.7,0.3,1.3,0.7,1.8,1.2c0.5,0.5,0.9,1.2,1.2,2s0.4,1.6,0.4,2.6v0.6h-9.6c0,0.5,0.2,1,0.4,1.5
			c0.2,0.5,0.5,0.9,0.8,1.2c0.3,0.3,0.7,0.6,1.2,0.8c0.5,0.2,1,0.3,1.5,0.3c0.9,0,1.6-0.2,2.2-0.5c0.6-0.3,1.1-0.8,1.6-1.3
			L-586.3,707.8z M-588,702.9c0-1-0.4-1.8-1-2.4c-0.6-0.6-1.5-0.9-2.6-0.9s-2,0.3-2.7,0.9c-0.7,0.6-1.1,1.4-1.2,2.4H-588z"/>
		<path class="st1" d="M-582.8,700.9c0-0.5,0-1.1-0.1-1.5c0-0.5-0.1-0.9-0.1-1.3h1.9c0,0.3,0,0.6,0,1s0,0.7,0,1h0.1
			c0.1-0.3,0.3-0.6,0.6-0.8c0.2-0.3,0.5-0.5,0.9-0.7s0.7-0.4,1.1-0.5c0.4-0.1,0.9-0.2,1.4-0.2c0.8,0,1.5,0.1,2,0.4
			c0.6,0.2,1,0.6,1.4,1c0.4,0.4,0.6,0.9,0.8,1.5s0.3,1.3,0.3,2v7.3h-2v-7.1c0-1-0.2-1.8-0.7-2.4c-0.4-0.6-1.1-0.9-2.1-0.9
			c-0.6,0-1.2,0.1-1.7,0.3c-0.5,0.2-0.8,0.5-1.1,0.9c-0.3,0.4-0.5,0.9-0.7,1.4c-0.1,0.6-0.2,1.2-0.2,1.9v5.8h-2V700.9z"/>
		<path class="st1" d="M-562.2,699.7h-3.5v5.9c0,0.4,0,0.8,0,1.1c0,0.3,0.1,0.6,0.2,0.9c0.1,0.2,0.3,0.4,0.5,0.6
			c0.2,0.1,0.6,0.2,1,0.2c0.3,0,0.6,0,0.9-0.1c0.3-0.1,0.6-0.2,0.9-0.3l0.1,1.8c-0.3,0.2-0.7,0.3-1.1,0.3c-0.4,0.1-0.8,0.1-1.2,0.1
			c-0.7,0-1.3-0.1-1.7-0.3c-0.4-0.2-0.8-0.4-1-0.8s-0.4-0.8-0.5-1.3c-0.1-0.5-0.1-1.1-0.1-1.7v-6.5h-2.6V698h2.6v-3.4h2v3.4h3.5
			V699.7z"/>
		<path class="st1" d="M-543.8,695.1c-0.4-0.6-0.8-1-1.4-1.3c-0.6-0.3-1.2-0.4-1.9-0.4c-0.5,0-0.9,0.1-1.4,0.2
			c-0.5,0.1-0.9,0.3-1.2,0.5c-0.4,0.2-0.7,0.6-0.9,0.9c-0.2,0.4-0.3,0.8-0.3,1.4c0,0.4,0.1,0.8,0.2,1.1s0.3,0.6,0.6,0.9
			c0.3,0.3,0.7,0.5,1.2,0.7s1.1,0.4,1.8,0.7c0.7,0.2,1.4,0.5,2,0.7c0.7,0.3,1.2,0.6,1.7,1s0.9,0.9,1.2,1.5s0.4,1.3,0.4,2.2
			c0,0.9-0.2,1.7-0.5,2.3c-0.4,0.7-0.8,1.2-1.4,1.6c-0.6,0.4-1.3,0.8-2,1s-1.6,0.3-2.4,0.3c-0.5,0-1.1,0-1.6-0.1
			c-0.5-0.1-1-0.2-1.5-0.4c-0.5-0.2-0.9-0.4-1.4-0.8s-0.8-0.7-1.1-1.2l1.8-1.5c0.4,0.7,0.9,1.2,1.6,1.5c0.7,0.3,1.4,0.5,2.2,0.5
			c0.5,0,0.9-0.1,1.4-0.2s0.9-0.3,1.3-0.6s0.7-0.6,0.9-1s0.4-0.8,0.4-1.3c0-0.6-0.1-1-0.3-1.4c-0.2-0.3-0.5-0.6-0.9-0.9
			s-0.9-0.5-1.5-0.7s-1.3-0.4-2.1-0.7c-0.6-0.2-1.2-0.4-1.8-0.7c-0.5-0.3-1-0.6-1.4-1c-0.4-0.4-0.7-0.8-0.9-1.4s-0.3-1.2-0.3-1.9
			c0-0.9,0.2-1.6,0.5-2.3c0.3-0.6,0.8-1.2,1.4-1.6c0.6-0.4,1.2-0.8,2-1c0.7-0.2,1.5-0.3,2.3-0.3c1,0,1.9,0.2,2.8,0.5
			c0.8,0.3,1.6,0.9,2.2,1.6L-543.8,695.1z"/>
		<path class="st1" d="M-534.1,712.7c-0.2,0.5-0.4,1-0.6,1.4c-0.2,0.4-0.5,0.8-0.8,1.1c-0.3,0.3-0.7,0.5-1.1,0.7
			c-0.4,0.2-0.9,0.2-1.5,0.2c-0.3,0-0.6,0-0.9-0.1s-0.6-0.1-0.9-0.3l0.3-1.7c0.2,0.1,0.4,0.1,0.6,0.2c0.2,0,0.5,0,0.8,0
			c0.6,0,1.1-0.2,1.4-0.5c0.3-0.4,0.6-0.8,0.8-1.4l0.8-2.2l-4.9-12h2.3l3.7,9.3h0.1l3.5-9.3h2.2L-534.1,712.7z"/>
		<path class="st1" d="M-526,706.8c0.4,0.5,0.8,0.9,1.3,1.2c0.5,0.3,1.1,0.4,1.8,0.4c0.3,0,0.6,0,0.9-0.1s0.6-0.2,0.9-0.3
			c0.3-0.2,0.5-0.3,0.6-0.6c0.2-0.2,0.2-0.5,0.2-0.8c0-0.3-0.1-0.6-0.2-0.8c-0.1-0.2-0.3-0.4-0.6-0.5c-0.2-0.1-0.5-0.3-0.8-0.3
			c-0.3-0.1-0.6-0.2-0.9-0.2c-0.6-0.1-1.1-0.3-1.6-0.4c-0.5-0.2-1-0.4-1.3-0.6c-0.4-0.2-0.7-0.6-0.9-1c-0.2-0.4-0.3-0.9-0.3-1.5
			c0-0.6,0.1-1.1,0.4-1.5c0.3-0.4,0.6-0.8,1-1.1s0.9-0.5,1.4-0.7s1.1-0.2,1.6-0.2c0.8,0,1.6,0.2,2.4,0.5c0.7,0.3,1.3,0.9,1.7,1.7
			l-1.7,1.1c-0.3-0.4-0.6-0.8-1-1s-0.9-0.4-1.5-0.4c-0.3,0-0.5,0-0.8,0.1c-0.3,0.1-0.5,0.2-0.8,0.3c-0.2,0.1-0.4,0.3-0.5,0.5
			c-0.1,0.2-0.2,0.5-0.2,0.7c0,0.3,0.1,0.5,0.2,0.6c0.2,0.2,0.4,0.3,0.7,0.5c0.3,0.1,0.6,0.3,1,0.4c0.4,0.1,0.7,0.2,1.1,0.3
			c0.5,0.1,1,0.2,1.5,0.4c0.5,0.2,0.9,0.4,1.2,0.6c0.4,0.3,0.6,0.6,0.8,1c0.2,0.4,0.3,0.9,0.3,1.5c0,0.7-0.1,1.3-0.4,1.7
			c-0.3,0.5-0.6,0.9-1.1,1.2c-0.4,0.3-1,0.5-1.5,0.6c-0.6,0.1-1.1,0.2-1.7,0.2c-1,0-1.9-0.2-2.6-0.5s-1.4-0.9-2-1.7L-526,706.8z"/>
		<path class="st1" d="M-508.9,699.7h-3.5v5.9c0,0.4,0,0.8,0,1.1c0,0.3,0.1,0.6,0.2,0.9c0.1,0.2,0.3,0.4,0.5,0.6
			c0.2,0.1,0.6,0.2,1,0.2c0.3,0,0.6,0,0.9-0.1c0.3-0.1,0.6-0.2,0.9-0.3l0.1,1.8c-0.3,0.2-0.7,0.3-1.1,0.3c-0.4,0.1-0.8,0.1-1.2,0.1
			c-0.7,0-1.3-0.1-1.7-0.3s-0.8-0.4-1-0.8s-0.4-0.8-0.5-1.3c-0.1-0.5-0.1-1.1-0.1-1.7v-6.5h-2.6V698h2.6v-3.4h2v3.4h3.5V699.7z"/>
		<path class="st1" d="M-495.9,707.8c-0.7,0.9-1.5,1.6-2.3,1.9s-1.8,0.5-2.9,0.5c-0.9,0-1.8-0.2-2.5-0.5c-0.7-0.3-1.4-0.8-1.9-1.3
			c-0.5-0.6-0.9-1.2-1.2-2s-0.4-1.6-0.4-2.4c0-0.9,0.2-1.8,0.5-2.5s0.7-1.4,1.3-2c0.5-0.6,1.2-1,1.9-1.3c0.7-0.3,1.6-0.5,2.4-0.5
			c0.8,0,1.6,0.1,2.3,0.4c0.7,0.3,1.3,0.7,1.8,1.2c0.5,0.5,0.9,1.2,1.2,2s0.4,1.6,0.4,2.6v0.6h-9.6c0,0.5,0.2,1,0.4,1.5
			c0.2,0.5,0.5,0.9,0.8,1.2c0.3,0.3,0.7,0.6,1.2,0.8c0.5,0.2,1,0.3,1.5,0.3c0.9,0,1.6-0.2,2.2-0.5c0.6-0.3,1.1-0.8,1.6-1.3
			L-495.9,707.8z M-497.6,702.9c0-1-0.4-1.8-1-2.4c-0.6-0.6-1.5-0.9-2.6-0.9s-2,0.3-2.7,0.9c-0.7,0.6-1.1,1.4-1.2,2.4H-497.6z"/>
		<path class="st1" d="M-492.4,700.9c0-0.5,0-1.1-0.1-1.5c0-0.5-0.1-0.9-0.1-1.3h1.9c0,0.3,0,0.6,0,1s0,0.7,0,1h0.1
			c0.1-0.3,0.3-0.6,0.6-0.8c0.2-0.3,0.5-0.5,0.9-0.7s0.7-0.4,1.1-0.5c0.4-0.1,0.9-0.2,1.4-0.2c0.6,0,1.2,0.1,1.6,0.2
			c0.4,0.2,0.8,0.4,1.1,0.6s0.5,0.5,0.7,0.7s0.3,0.5,0.4,0.7c0.4-0.7,0.9-1.3,1.5-1.7s1.3-0.6,2.2-0.6c0.8,0,1.6,0.1,2.1,0.3
			c0.6,0.2,1,0.6,1.4,1c0.4,0.4,0.6,1,0.8,1.6s0.2,1.3,0.2,2.1v7.2h-2v-7.1c0-0.4,0-0.8-0.1-1.2c-0.1-0.4-0.2-0.7-0.5-1
			c-0.2-0.3-0.5-0.6-0.9-0.7c-0.4-0.2-0.8-0.3-1.4-0.3c-0.4,0-0.8,0.1-1.2,0.3c-0.4,0.2-0.7,0.4-1,0.7c-0.3,0.3-0.5,0.7-0.7,1.1
			c-0.2,0.4-0.2,0.9-0.2,1.4v6.9h-2v-6.7c0-1.3-0.2-2.3-0.5-2.8c-0.4-0.5-0.9-0.8-1.8-0.8c-0.6,0-1.2,0.1-1.7,0.3
			c-0.5,0.2-0.8,0.5-1.1,0.9c-0.3,0.4-0.5,0.9-0.7,1.4c-0.1,0.6-0.2,1.2-0.2,1.9v5.8h-2V700.9z"/>
	</g>
	<rect x="-796.2" y="675.8" class="st1" width="322.6" height="1.3"/>
	<g>
		<path class="st2" d="M-588,439.7c0-0.3,0-0.6,0-0.8c0.2-9.6-0.6-19.1-2.2-28.3l0,0c-6.8,0-12.4-5.5-12.4-12.4
			c0-4.6,2.5-8.6,6.2-10.7c-2.7-7.6-6.1-14.9-10-21.8c-5.5-1.6-11.2-2.7-17-3.3c-13.2,8.4-25,18.6-35,30.1
			C-630.8,402.6-606.5,419-588,439.7z"/>
		<path class="st2" d="M-700.6,484.3c0.5-23.1,6.4-44.9,16.5-64.4c-2.6-2.3-4.2-5.6-4.2-9.3c0-6.8,5.5-12.4,12.4-12.4
			c1.7,0,3.2,0.3,4.7,0.9c1.1-1.4,2.1-2.8,3.2-4.2c-11.4-3.6-23.3-6.1-35.7-7.4c-21.9,19.2-35.7,47.3-35.7,78.7
			c0,8.1,0.9,15.9,2.7,23.4c11.5,6.1,24,10.9,37,14.4C-700.5,497.6-700.8,491-700.6,484.3z"/>
		<path class="st2" d="M-598.5,368.3c2.9,5.7,5.5,11.6,7.7,17.6c0.2,0,0.4,0,0.6,0c6.8,0,12.4,5.5,12.4,12.4c0,4.8-2.7,8.9-6.6,11
			c1.8,9.7,2.6,19.7,2.4,29.8c-0.1,2.4-0.2,4.9-0.4,7.3c9.3,11.6,17,24.4,22.7,38.1c10.6-6.5,20.4-14.1,29.2-22.6
			C-532.3,418.9-560,382.6-598.5,368.3z"/>
		<path class="st2" d="M-549.3,526c11.2-16.1,18.1-35.5,18.7-56.4c-8.3,7.5-17.4,14.2-27.1,20.1C-553.5,501.3-550.5,513.4-549.3,526
			z"/>
		<path class="st2" d="M-735,496.7c8.4,27.5,27.8,50.1,53,62.8c-8.5-15.3-14.4-32.1-17.1-49.7C-711.5,506.7-723.6,502.3-735,496.7z"
			/>
		<path class="st2" d="M-601.3,508.5c-13.6,24-33.7,44.4-58.2,59.3c7.9,1.9,16.1,2.9,24.6,2.9c32.3,0,61.1-14.6,80.3-37.6
			c-0.7-14-3.5-27.6-8.1-40.4C-574.8,499.3-587.7,504.6-601.3,508.5z"/>
		<path class="st2" d="M-632.5,361.8c-0.8,0-1.6-0.1-2.4-0.1c-23.6,0-45.4,7.8-62.9,21.1c11.6,1.5,22.9,4.1,33.6,7.7
			C-655.2,379.7-644.5,370-632.5,361.8z"/>
		<path class="st2" d="M-662.2,396.9c-1.5,1.9-2.9,3.7-4.4,5.6c1.9,2.2,3,5,3,8.1c0,6.8-5.5,12.4-12.4,12.4c-1.1,0-2.1-0.1-3.1-0.4
			c-9.7,18.8-15.3,39.7-15.8,61.9c-0.2,7.1,0.2,14.2,1.1,21.1c9.1,2.1,18.5,3.5,28.2,4.1c1.3-5.5,6.2-9.6,12-9.6
			c5.9,0,10.8,4.1,12.1,9.7c12.4-0.8,24.4-2.7,35.9-5.8c9.3-17.1,15.2-36,17-56.1C-607.2,425.2-632.7,407.4-662.2,396.9z"/>
		<path class="st2" d="M-564.8,487.4c-4.7-11.7-10.9-22.7-18.4-32.8c-2.2,16.7-7.1,32.5-14.4,47.1
			C-586.2,498-575.2,493.2-564.8,487.4z"/>
		<path class="st2" d="M-653.5,524.9c-5.9,0-10.9-4.2-12.1-9.8c-9.3-0.6-18.4-1.9-27.3-3.8c3.2,18.7,10.1,36.4,20,52.3
			c1.9,0.7,3.9,1.4,5.8,2.1c23.9-13.6,43.9-32.6,57.7-55.1c-10.4,2.4-21.1,4-32.1,4.7C-642.5,520.7-647.5,524.9-653.5,524.9z"/>
	</g>
</g>
</svg>
