<?xml version="1.0" encoding="utf-8"?>
<!-- Generator: Adobe Illustrator 19.1.0, SVG Export Plug-In . SVG Version: 6.00 Build 0)  -->
<!DOCTYPE svg PUBLIC "-//W3C//DTD SVG 1.1//EN" "http://www.w3.org/Graphics/SVG/1.1/DTD/svg11.dtd">
<svg version="1.1" id="Layer_1" xmlns="http://www.w3.org/2000/svg" xmlns:xlink="http://www.w3.org/1999/xlink" x="0px" y="0px"
	 viewBox="-160 427.7 337.3 74.3" style="enable-background:new -160 427.7 337.3 74.3;" xml:space="preserve">
<style type="text/css">
	.st0{fill:#8F8F8F;}
	.st1{fill:#63C6F1;}
</style>
<g>
	<g>
		<path class="st0" d="M-68.2,464.9c0-5.5,1-10.5,2.9-15.1c1.9-4.5,4.5-8.4,7.8-11.7c3.3-3.3,7.3-5.8,11.9-7.6
			c4.6-1.8,9.6-2.7,15.1-2.7c5.4,0,10.4,0.9,15.1,2.7c4.6,1.8,8.6,4.3,11.9,7.6c3.3,3.3,5.9,7.2,7.8,11.7s2.9,9.5,2.9,15.1
			c0,5.5-1,10.5-2.9,15.1c-1.9,4.5-4.5,8.4-7.8,11.7s-7.3,5.8-11.9,7.6c-4.6,1.8-9.6,2.7-15.1,2.7c-5.4,0-10.4-0.9-15.1-2.7
			c-4.6-1.8-8.6-4.3-11.9-7.6c-3.3-3.3-5.9-7.2-7.8-11.7C-67.2,475.4-68.2,470.4-68.2,464.9z M-55.5,464.9c0,3.7,0.6,7.2,1.7,10.3
			c1.2,3.2,2.8,5.9,5,8.3s4.8,4.2,7.9,5.6s6.5,2,10.3,2s7.3-0.7,10.3-2c3.1-1.4,5.7-3.2,7.9-5.6s3.9-5.1,5-8.3
			c1.2-3.2,1.7-6.6,1.7-10.3c0-3.7-0.6-7.2-1.7-10.3c-1.2-3.2-2.8-5.9-5-8.3c-2.2-2.4-4.8-4.2-7.9-5.6c-3.1-1.4-6.5-2-10.3-2
			s-7.3,0.7-10.3,2c-3.1,1.4-5.7,3.2-7.9,5.6c-2.2,2.4-3.9,5.1-5,8.3C-54.9,457.7-55.5,461.2-55.5,464.9z"/>
		<path class="st0" d="M13.3,446.8c0-3.3-0.1-6.4-0.3-9.3c-0.2-2.9-0.3-5.5-0.3-7.9h11.1c0,2,0,3.9,0.2,5.9c0.1,2,0.2,4,0.2,6h0.3
			c0.8-1.7,1.9-3.4,3.4-5.1c1.5-1.6,3.2-3.1,5.2-4.4s4.3-2.3,6.8-3.1c2.5-0.8,5.2-1.2,8.1-1.2c3.8,0,7,0.5,9.6,1.5s4.7,2.2,6.4,3.6
			s3,2.9,4,4.5s1.7,3,2.3,4.2c2.6-4.3,5.6-7.7,9-10.1c3.4-2.4,7.8-3.6,13.3-3.6c5,0,9.2,0.7,12.7,2.1c3.4,1.4,6.2,3.4,8.3,6
			c2.1,2.6,3.6,5.8,4.5,9.6c0.9,3.8,1.4,8,1.4,12.6v43.8h-11.7v-43.2c0-2.5-0.3-4.9-0.8-7.3s-1.4-4.5-2.7-6.3
			c-1.3-1.9-3.1-3.3-5.3-4.5c-2.2-1.1-5-1.7-8.4-1.7c-2.5,0-4.9,0.5-7.1,1.5c-2.2,1-4.1,2.5-5.8,4.3c-1.7,1.9-3,4.1-3.9,6.7
			c-1,2.6-1.4,5.5-1.4,8.7v41.7H60.7V461c0-8-1.1-13.7-3.2-17.1c-2.1-3.3-5.6-5-10.4-5c-3.8,0-7.1,0.7-9.9,2c-2.8,1.3-5,3.2-6.8,5.7
			s-3.1,5.4-3.9,8.8c-0.9,3.4-1.3,7.2-1.3,11.3v35.2H13.5v-55.1H13.3z"/>
		<path class="st0" d="M131.1,481.6c2.3,2.9,4.8,5.2,7.6,6.9c2.8,1.7,6.3,2.6,10.5,2.6c1.8,0,3.6-0.2,5.5-0.6s3.5-1.1,5-2
			s2.7-2,3.6-3.4c0.9-1.4,1.4-3,1.4-4.9s-0.4-3.5-1.3-4.7c-0.9-1.2-2-2.2-3.4-3.1s-3-1.5-4.8-2c-1.8-0.5-3.7-1-5.6-1.4
			c-3.3-0.7-6.5-1.5-9.5-2.4s-5.6-2.1-7.9-3.5c-2.3-1.5-4.1-3.3-5.4-5.7c-1.4-2.3-2-5.3-2-8.9c0-3.4,0.8-6.4,2.3-9
			c1.5-2.6,3.5-4.8,6-6.5c2.5-1.7,5.3-3,8.4-3.9c3.1-0.9,6.3-1.4,9.6-1.4c5,0,9.7,1,13.9,3c4.3,2,7.6,5.3,10,9.8l-9.8,6.5
			c-1.5-2.5-3.5-4.5-5.9-6.1c-2.5-1.6-5.4-2.3-9-2.3c-1.6,0-3.2,0.2-4.9,0.6c-1.7,0.4-3.1,1-4.4,1.8s-2.4,1.8-3.2,3.1
			c-0.9,1.3-1.3,2.7-1.3,4.3c0,1.5,0.5,2.8,1.4,3.8c1,1.1,2.3,2,3.9,2.8c1.7,0.8,3.6,1.5,5.7,2.1c2.2,0.6,4.4,1.1,6.7,1.5
			c3.1,0.6,6.1,1.4,8.9,2.3c2.8,1,5.3,2.2,7.4,3.8c2.1,1.6,3.8,3.6,5,6c1.2,2.4,1.8,5.4,1.8,8.9c0,4-0.8,7.4-2.4,10.2
			c-1.6,2.8-3.7,5.1-6.4,6.9c-2.7,1.8-5.7,3-9,3.8c-3.4,0.8-6.8,1.2-10.3,1.2c-6,0-11.2-0.9-15.6-2.8c-4.4-1.9-8.3-5.3-11.8-10.3
			L131.1,481.6z"/>
	</g>
	<g>
		<path class="st1" d="M-106.3,455.5c0-0.1,0-0.2,0-0.3c0.1-3.4-0.2-6.8-0.8-10l0,0c-2.4,0-4.4-2-4.4-4.4c0-1.6,0.9-3,2.2-3.8
			c-1-2.7-2.2-5.3-3.5-7.7c-2-0.6-4-1-6-1.2c-4.7,3-8.9,6.6-12.4,10.7C-121.4,442.3-112.9,448.1-106.3,455.5z"/>
		<path class="st1" d="M-146.2,471.3c0.2-8.2,2.3-15.9,5.9-22.9c-0.9-0.8-1.5-2-1.5-3.3c0-2.4,2-4.4,4.4-4.4c0.6,0,1.2,0.1,1.7,0.3
			c0.4-0.5,0.8-1,1.1-1.5c-4-1.3-8.3-2.2-12.7-2.6c-7.8,6.9-12.7,16.8-12.7,28c0,2.9,0.3,5.6,0.9,8.3c4.1,2.2,8.5,3.9,13.1,5.1
			C-146.2,476-146.3,473.7-146.2,471.3z"/>
		<path class="st1" d="M-110,430.1c1,2,1.9,4.1,2.7,6.3c0.1,0,0.1,0,0.2,0c2.4,0,4.4,2,4.4,4.4c0,1.7-1,3.2-2.3,3.9
			c0.6,3.4,0.9,7,0.9,10.6c0,0.9-0.1,1.7-0.1,2.6c3.3,4.1,6,8.7,8,13.5c3.8-2.3,7.2-5,10.3-8C-86.5,448.1-96.4,435.2-110,430.1z"/>
		<path class="st1" d="M-92.5,486.1c4-5.7,6.4-12.6,6.7-20c-2.9,2.7-6.2,5.1-9.6,7.1C-94,477.3-93,481.6-92.5,486.1z"/>
		<path class="st1" d="M-158.4,475.7c3,9.7,9.9,17.8,18.8,22.3c-3-5.4-5.1-11.4-6.1-17.6C-150.1,479.2-154.4,477.7-158.4,475.7z"/>
		<path class="st1" d="M-111,479.9c-4.8,8.5-12,15.8-20.7,21c2.8,0.7,5.7,1,8.7,1c11.4,0,21.7-5.2,28.5-13.3
			c-0.3-5-1.3-9.8-2.9-14.3C-101.6,476.6-106.2,478.5-111,479.9z"/>
		<path class="st1" d="M-122.1,427.8c-0.3,0-0.6,0-0.8,0c-8.4,0-16.1,2.8-22.4,7.5c4.1,0.5,8.1,1.5,11.9,2.7
			C-130.1,434.2-126.3,430.8-122.1,427.8z"/>
		<path class="st1" d="M-132.6,440.3c-0.5,0.7-1,1.3-1.5,2c0.7,0.8,1.1,1.8,1.1,2.9c0,2.4-2,4.4-4.4,4.4c-0.4,0-0.7-0.1-1.1-0.1
			c-3.5,6.6-5.5,14-5.6,21.9c-0.1,2.5,0.1,5,0.4,7.5c3.2,0.7,6.6,1.2,10,1.5c0.5-1.9,2.2-3.4,4.3-3.4c2.1,0,3.8,1.5,4.3,3.4
			c4.4-0.3,8.7-1,12.7-2.1c3.3-6.1,5.4-12.8,6-19.9C-113.1,450.3-122.1,444-132.6,440.3z"/>
		<path class="st1" d="M-98,472.4c-1.7-4.1-3.9-8-6.5-11.6c-0.8,5.9-2.5,11.5-5.1,16.7C-105.6,476.2-101.7,474.5-98,472.4z"/>
		<path class="st1" d="M-129.5,485.7c-2.1,0-3.9-1.5-4.3-3.5c-3.3-0.2-6.5-0.7-9.7-1.4c1.1,6.6,3.6,12.9,7.1,18.6
			c0.7,0.3,1.4,0.5,2.1,0.7c8.5-4.8,15.6-11.6,20.5-19.6c-3.7,0.9-7.5,1.4-11.4,1.7C-125.6,484.2-127.4,485.7-129.5,485.7z"/>
	</g>
</g>
</svg>
