<?xml version="1.0" encoding="utf-8"?>
<!-- Generator: Adobe Illustrator 19.2.1, SVG Export Plug-In . SVG Version: 6.00 Build 0)  -->
<!DOCTYPE svg PUBLIC "-//W3C//DTD SVG 1.1//EN" "http://www.w3.org/Graphics/SVG/1.1/DTD/svg11.dtd">
<svg version="1.1" id="Layer_1" xmlns="http://www.w3.org/2000/svg" xmlns:xlink="http://www.w3.org/1999/xlink" x="0px" y="0px"
	 viewBox="0 0 337.3 74.3" style="enable-background:new 0 0 337.3 74.3;" xml:space="preserve">
<style type="text/css">
	.st0{fill:#FFFFFF;}
</style>
<g>
	<g>
		<path class="st0" d="M91.8,37.2c0-5.5,1-10.5,2.9-15.1c1.9-4.5,4.5-8.4,7.8-11.7c3.3-3.3,7.3-5.8,11.9-7.6
			C119,1,124,0.1,129.5,0.1c5.4,0,10.4,0.9,15.1,2.7c4.6,1.8,8.6,4.3,11.9,7.6c3.3,3.3,5.9,7.2,7.8,11.7s2.9,9.5,2.9,15.1
			c0,5.5-1,10.5-2.9,15.1c-1.9,4.5-4.5,8.4-7.8,11.7s-7.3,5.8-11.9,7.6c-4.6,1.8-9.6,2.7-15.1,2.7c-5.4,0-10.4-0.9-15.1-2.7
			c-4.6-1.8-8.6-4.3-11.9-7.6c-3.3-3.3-5.9-7.2-7.8-11.7C92.8,47.7,91.8,42.7,91.8,37.2z M104.5,37.2c0,3.7,0.6,7.2,1.7,10.3
			c1.2,3.2,2.8,5.9,5,8.3c2.2,2.4,4.8,4.2,7.9,5.6c3.1,1.4,6.5,2,10.3,2c3.8,0,7.3-0.7,10.3-2c3.1-1.4,5.7-3.2,7.9-5.6
			c2.2-2.4,3.9-5.1,5-8.3c1.2-3.2,1.7-6.6,1.7-10.3c0-3.7-0.6-7.2-1.7-10.3c-1.2-3.2-2.8-5.9-5-8.3c-2.2-2.4-4.8-4.2-7.9-5.6
			c-3.1-1.4-6.5-2-10.3-2c-3.8,0-7.3,0.7-10.3,2c-3.1,1.4-5.7,3.2-7.9,5.6c-2.2,2.4-3.9,5.1-5,8.3C105.1,30,104.5,33.5,104.5,37.2z"
			/>
		<path class="st0" d="M173.3,19.1c0-3.3-0.1-6.4-0.3-9.3s-0.3-5.5-0.3-7.9h11.1c0,2,0,3.9,0.2,5.9c0.1,2,0.2,4,0.2,6h0.3
			c0.8-1.7,1.9-3.4,3.4-5.1c1.5-1.6,3.2-3.1,5.2-4.4s4.3-2.3,6.8-3.1c2.5-0.8,5.2-1.2,8.1-1.2c3.8,0,7,0.5,9.6,1.5
			c2.6,1,4.7,2.2,6.4,3.6s3,2.9,4,4.5s1.7,3,2.3,4.2c2.6-4.3,5.6-7.7,9-10.1s7.8-3.6,13.3-3.6c5,0,9.2,0.7,12.7,2.1
			c3.4,1.4,6.2,3.4,8.3,6s3.6,5.8,4.5,9.6c0.9,3.8,1.4,8,1.4,12.6v43.8h-11.7V31c0-2.5-0.3-4.9-0.8-7.3s-1.4-4.5-2.7-6.3
			c-1.3-1.9-3.1-3.3-5.3-4.5c-2.2-1.1-5-1.7-8.4-1.7c-2.5,0-4.9,0.5-7.1,1.5c-2.2,1-4.1,2.5-5.8,4.3c-1.7,1.9-3,4.1-3.9,6.7
			c-1,2.6-1.4,5.5-1.4,8.7v41.7h-11.7V33.3c0-8-1.1-13.7-3.2-17.1c-2.1-3.3-5.6-5-10.4-5c-3.8,0-7.1,0.7-9.9,2s-5,3.2-6.8,5.7
			c-1.8,2.5-3.1,5.4-3.9,8.8c-0.9,3.4-1.3,7.2-1.3,11.3v35.2h-11.7V19.1H173.3z"/>
		<path class="st0" d="M291.1,53.9c2.3,2.9,4.8,5.2,7.6,6.9c2.8,1.7,6.3,2.6,10.5,2.6c1.8,0,3.6-0.2,5.5-0.6s3.5-1.1,5-2
			s2.7-2,3.6-3.4s1.4-3,1.4-4.9s-0.4-3.5-1.3-4.7c-0.9-1.2-2-2.2-3.4-3.1c-1.4-0.9-3-1.5-4.8-2s-3.7-1-5.6-1.4
			c-3.3-0.7-6.5-1.5-9.5-2.4s-5.6-2.1-7.9-3.5c-2.3-1.5-4.1-3.3-5.4-5.7c-1.4-2.3-2-5.3-2-8.9c0-3.4,0.8-6.4,2.3-9s3.5-4.8,6-6.5
			s5.3-3,8.4-3.9c3.1-0.9,6.3-1.4,9.6-1.4c5,0,9.7,1,13.9,3c4.3,2,7.6,5.3,10,9.8l-9.8,6.5c-1.5-2.5-3.5-4.5-5.9-6.1
			c-2.5-1.6-5.4-2.3-9-2.3c-1.6,0-3.2,0.2-4.9,0.6c-1.7,0.4-3.1,1-4.4,1.8s-2.4,1.8-3.2,3.1c-0.9,1.3-1.3,2.7-1.3,4.3
			c0,1.5,0.5,2.8,1.4,3.8c1,1.1,2.3,2,3.9,2.8c1.7,0.8,3.6,1.5,5.7,2.1c2.2,0.6,4.4,1.1,6.7,1.5c3.1,0.6,6.1,1.4,8.9,2.3
			c2.8,1,5.3,2.2,7.4,3.8c2.1,1.6,3.8,3.6,5,6c1.2,2.4,1.8,5.4,1.8,8.9c0,4-0.8,7.4-2.4,10.2c-1.6,2.8-3.7,5.1-6.4,6.9s-5.7,3-9,3.8
			c-3.4,0.8-6.8,1.2-10.3,1.2c-6,0-11.2-0.9-15.6-2.8c-4.4-1.9-8.3-5.3-11.8-10.3L291.1,53.9z"/>
	</g>
	<g>
		<path class="st0" d="M53.7,27.8c0-0.1,0-0.2,0-0.3c0.1-3.4-0.2-6.8-0.8-10l0,0c-2.4,0-4.4-2-4.4-4.4c0-1.6,0.9-3,2.2-3.8
			c-1-2.7-2.2-5.3-3.5-7.7c-2-0.6-4-1-6-1.2c-4.7,3-8.9,6.6-12.4,10.7C38.6,14.6,47.1,20.4,53.7,27.8z"/>
		<path class="st0" d="M13.8,43.6c0.2-8.2,2.3-15.9,5.9-22.9c-0.9-0.8-1.5-2-1.5-3.3c0-2.4,2-4.4,4.4-4.4c0.6,0,1.2,0.1,1.7,0.3
			c0.4-0.5,0.8-1,1.1-1.5c-4-1.3-8.3-2.2-12.7-2.6C4.9,16.1,0,26,0,37.2c0,2.9,0.3,5.6,0.9,8.3C5,47.7,9.4,49.4,14,50.6
			C13.8,48.3,13.7,46,13.8,43.6z"/>
		<path class="st0" d="M50,2.4c1,2,1.9,4.1,2.7,6.3c0.1,0,0.1,0,0.2,0c2.4,0,4.4,2,4.4,4.4c0,1.7-1,3.2-2.3,3.9
			c0.6,3.4,0.9,7,0.9,10.6c0,0.9-0.1,1.7-0.1,2.6c3.3,4.1,6,8.7,8,13.5c3.8-2.3,7.2-5,10.3-8C73.5,20.4,63.6,7.5,50,2.4z"/>
		<path class="st0" d="M67.5,58.4c4-5.7,6.4-12.6,6.7-20c-2.9,2.7-6.2,5.1-9.6,7.1C66,49.6,67,53.9,67.5,58.4z"/>
		<path class="st0" d="M1.6,48c3,9.7,9.9,17.8,18.8,22.3c-3-5.4-5.1-11.4-6.1-17.6C9.9,51.5,5.6,50,1.6,48z"/>
		<path class="st0" d="M49,52.2c-4.8,8.5-12,15.8-20.7,21c2.8,0.7,5.7,1,8.7,1c11.4,0,21.7-5.2,28.5-13.3c-0.3-5-1.3-9.8-2.9-14.3
			C58.4,48.9,53.8,50.8,49,52.2z"/>
		<path class="st0" d="M37.9,0.1c-0.3,0-0.6,0-0.8,0c-8.4,0-16.1,2.8-22.4,7.5c4.1,0.5,8.1,1.5,11.9,2.7C29.9,6.5,33.7,3.1,37.9,0.1
			z"/>
		<path class="st0" d="M27.4,12.6c-0.5,0.7-1,1.3-1.5,2c0.7,0.8,1.1,1.8,1.1,2.9c0,2.4-2,4.4-4.4,4.4c-0.4,0-0.7-0.1-1.1-0.1
			c-3.5,6.6-5.5,14-5.6,21.9c-0.1,2.5,0.1,5,0.4,7.5c3.2,0.7,6.6,1.2,10,1.5c0.5-1.9,2.2-3.4,4.3-3.4c2.1,0,3.8,1.5,4.3,3.4
			c4.4-0.3,8.7-1,12.7-2.1c3.3-6.1,5.4-12.8,6-19.9C46.9,22.6,37.9,16.3,27.4,12.6z"/>
		<path class="st0" d="M62,44.7c-1.7-4.1-3.9-8-6.5-11.6C54.7,39,53,44.6,50.4,49.8C54.4,48.5,58.3,46.8,62,44.7z"/>
		<path class="st0" d="M30.5,58c-2.1,0-3.9-1.5-4.3-3.5c-3.3-0.2-6.5-0.7-9.7-1.4c1.1,6.6,3.6,12.9,7.1,18.6
			c0.7,0.3,1.4,0.5,2.1,0.7c8.5-4.8,15.6-11.6,20.5-19.6c-3.7,0.9-7.5,1.4-11.4,1.7C34.4,56.5,32.6,58,30.5,58z"/>
	</g>
</g>
</svg>
