<?xml version="1.0" encoding="utf-8"?>
<!-- Generator: Adobe Illustrator 21.0.2, SVG Export Plug-In . SVG Version: 6.00 Build 0)  -->
<svg version="1.1" id="Layer_1" xmlns="http://www.w3.org/2000/svg" xmlns:xlink="http://www.w3.org/1999/xlink" x="0px" y="0px"
	 viewBox="0 0 390.6 74.3" style="enable-background:new 0 0 390.6 74.3;" xml:space="preserve">
<style type="text/css">
	.st0{fill:#FFFFFF;}
</style>
<g>
	<g>
		<path class="st0" d="M126,0h11.4l32,74.3h-15.1l-6.9-17h-32.2l-6.7,17H93.7L126,0z M142.8,46l-11.4-30.2L119.7,46H142.8z"/>
		<path class="st0" d="M181.9,12h-22.8V0h58.8v12h-22.8v62.3h-13.2V12z"/>
		<path class="st0" d="M223.1,37.5c0-5.7,0.9-10.8,2.8-15.4c1.9-4.6,4.4-8.6,7.7-11.8c3.3-3.3,7.2-5.8,11.8-7.5
			C250,0.9,255,0,260.4,0c5.5-0.1,10.6,0.7,15.2,2.4c4.6,1.7,8.6,4.2,11.9,7.4c3.3,3.3,5.9,7.2,7.8,11.8c1.9,4.6,2.8,9.7,2.8,15.4
			c0,5.5-0.9,10.6-2.8,15.1c-1.9,4.5-4.5,8.4-7.8,11.7c-3.3,3.3-7.3,5.8-11.9,7.6c-4.6,1.8-9.7,2.8-15.2,2.8c-5.5,0-10.5-0.9-15-2.6
			c-4.6-1.8-8.5-4.3-11.8-7.5c-3.3-3.2-5.9-7.1-7.7-11.6C224,48,223.1,43,223.1,37.5z M236.3,36.7c0,3.8,0.6,7.3,1.7,10.5
			c1.2,3.2,2.8,6,4.9,8.3c2.1,2.3,4.7,4.2,7.6,5.5c3,1.3,6.3,2,9.9,2c3.7,0,7-0.7,10-2c3-1.3,5.6-3.2,7.7-5.5
			c2.1-2.3,3.8-5.1,4.9-8.3c1.2-3.2,1.7-6.7,1.7-10.5c0-3.5-0.6-6.8-1.7-9.9c-1.2-3.1-2.8-5.7-4.9-8c-2.1-2.3-4.7-4.1-7.7-5.4
			s-6.3-1.9-10-1.9c-3.7,0-7,0.6-9.9,1.9c-3,1.3-5.5,3.1-7.6,5.4c-2.1,2.3-3.8,5-4.9,8C236.8,29.8,236.3,33.1,236.3,36.7z"/>
		<path class="st0" d="M310.7,0h20.1l19.8,52.1l20-52.1h19.9v74.3h-12.6V12.6h-0.2l-22.6,61.7H346l-22.6-61.7h-0.2v61.7h-12.6V0z"/>
	</g>
	<g>
		<path class="st0" d="M53.7,27.9c0-0.1,0-0.2,0-0.3c0.1-3.4-0.2-6.8-0.8-10l0,0c-2.4,0-4.4-2-4.4-4.4c0-1.6,0.9-3,2.2-3.8
			c-1-2.7-2.2-5.3-3.5-7.7c-2-0.6-4-1-6-1.2c-4.7,3-8.9,6.6-12.4,10.7C38.6,14.7,47.1,20.5,53.7,27.9z"/>
		<path class="st0" d="M13.8,43.7c0.2-8.2,2.3-15.9,5.9-22.9c-0.9-0.8-1.5-2-1.5-3.3c0-2.4,2-4.4,4.4-4.4c0.6,0,1.2,0.1,1.7,0.3
			c0.4-0.5,0.8-1,1.1-1.5c-4-1.3-8.3-2.2-12.7-2.6C4.9,16.2,0,26.1,0,37.3c0,2.9,0.3,5.6,0.9,8.3C5,47.8,9.4,49.5,14,50.7
			C13.8,48.4,13.7,46.1,13.8,43.7z"/>
		<path class="st0" d="M50,2.5c1,2,1.9,4.1,2.7,6.3c0.1,0,0.1,0,0.2,0c2.4,0,4.4,2,4.4,4.4c0,1.7-1,3.2-2.3,3.9
			c0.6,3.4,0.9,7,0.9,10.6c0,0.9-0.1,1.7-0.1,2.6c3.3,4.1,6,8.7,8,13.5c3.8-2.3,7.2-5,10.3-8C73.5,20.5,63.6,7.6,50,2.5z"/>
		<path class="st0" d="M67.5,58.5c4-5.7,6.4-12.6,6.7-20c-2.9,2.7-6.2,5.1-9.6,7.1C66,49.7,67,54,67.5,58.5z"/>
		<path class="st0" d="M1.6,48.1c3,9.7,9.9,17.8,18.8,22.3c-3-5.4-5.1-11.4-6.1-17.6C9.9,51.6,5.6,50.1,1.6,48.1z"/>
		<path class="st0" d="M49,52.3c-4.8,8.5-12,15.8-20.7,21c2.8,0.7,5.7,1,8.7,1c11.4,0,21.7-5.2,28.5-13.3c-0.3-5-1.3-9.8-2.9-14.3
			C58.4,49,53.8,50.9,49,52.3z"/>
		<path class="st0" d="M37.9,0.2c-0.3,0-0.6,0-0.8,0C28.7,0.2,21,3,14.7,7.7c4.1,0.5,8.1,1.5,11.9,2.7C29.9,6.6,33.7,3.2,37.9,0.2z"
			/>
		<path class="st0" d="M27.4,12.7c-0.5,0.7-1,1.3-1.5,2c0.7,0.8,1.1,1.8,1.1,2.9c0,2.4-2,4.4-4.4,4.4c-0.4,0-0.7-0.1-1.1-0.1
			c-3.5,6.6-5.5,14-5.6,21.9c-0.1,2.5,0.1,5,0.4,7.5c3.2,0.7,6.6,1.2,10,1.5c0.5-1.9,2.2-3.4,4.3-3.4c2.1,0,3.8,1.5,4.3,3.4
			c4.4-0.3,8.7-1,12.7-2.1c3.3-6.1,5.4-12.8,6-19.9C46.9,22.7,37.9,16.4,27.4,12.7z"/>
		<path class="st0" d="M62,44.8c-1.7-4.1-3.9-8-6.5-11.6c-0.8,5.9-2.5,11.5-5.1,16.7C54.4,48.6,58.3,46.9,62,44.8z"/>
		<path class="st0" d="M30.5,58.1c-2.1,0-3.9-1.5-4.3-3.5c-3.3-0.2-6.5-0.7-9.7-1.4c1.1,6.6,3.6,12.9,7.1,18.6
			c0.7,0.3,1.4,0.5,2.1,0.7c8.5-4.8,15.6-11.6,20.5-19.6c-3.7,0.9-7.5,1.4-11.4,1.7C34.4,56.6,32.6,58.1,30.5,58.1z"/>
	</g>
</g>
</svg>
