<?xml version="1.0" encoding="utf-8"?>
<!-- Generator: Adobe Illustrator 19.2.1, SVG Export Plug-In . SVG Version: 6.00 Build 0)  -->
<!DOCTYPE svg PUBLIC "-//W3C//DTD SVG 1.1//EN" "http://www.w3.org/Graphics/SVG/1.1/DTD/svg11.dtd">
<svg version="1.1" id="Capa_1" xmlns="http://www.w3.org/2000/svg" xmlns:xlink="http://www.w3.org/1999/xlink" x="0px" y="0px"
	 viewBox="0 0 512 279.3" style="enable-background:new 0 0 512 279.3;" xml:space="preserve">
<style type="text/css">
	.st0{fill:#FFFFFF;}
</style>
<path class="st0" d="M72.5,151.7c0,2.6,1.9,4.7,4.7,4.7h357.6c2.6,0,4.7-2.1,4.7-4.7v-24.1c0-2.6-1.9-4.7-4.7-4.7H77.2
	c-2.6,0-4.7,2.1-4.7,4.7V151.7z"/>
<path class="st0" d="M72.5,28.7c0,2.6,1.9,4.7,4.7,4.7h357.6c2.6,0,4.7-2.1,4.7-4.7V4.7c0-2.6-1.9-4.7-4.7-4.7H77.2
	c-2.6,0-4.7,2.1-4.7,4.7V28.7z"/>
<path class="st0" d="M72.5,274.6c0,2.6,1.9,4.7,4.7,4.7h357.6c2.6,0,4.7-2.1,4.7-4.7v-24.1c0-2.6-1.9-4.7-4.7-4.7H77.2
	c-2.6,0-4.7,2.1-4.7,4.7V274.6z"/>
</svg>
