<?xml version="1.0" encoding="utf-8"?>
<!-- Generator: Adobe Illustrator 21.0.2, SVG Export Plug-In . SVG Version: 6.00 Build 0)  -->
<svg version="1.1" id="Layer_1" xmlns="http://www.w3.org/2000/svg" xmlns:xlink="http://www.w3.org/1999/xlink" x="0px" y="0px"
	 viewBox="0 0 74.2 74.1" style="enable-background:new 0 0 74.2 74.1;" xml:space="preserve">
<style type="text/css">
	.st0{fill:#FFFFFF;}
</style>
<g>
	<path class="st0" d="M53.7,27.7c0-0.1,0-0.2,0-0.3c0.1-3.4-0.2-6.8-0.8-10l0,0c-2.4,0-4.4-2-4.4-4.4c0-1.6,0.9-3,2.2-3.8
		c-1-2.7-2.2-5.3-3.5-7.7c-2-0.6-4-1-6-1.2c-4.7,3-8.9,6.6-12.4,10.7C38.6,14.5,47.1,20.3,53.7,27.7z"/>
	<path class="st0" d="M13.8,43.5c0.2-8.2,2.3-15.9,5.9-22.9c-0.9-0.8-1.5-2-1.5-3.3c0-2.4,2-4.4,4.4-4.4c0.6,0,1.2,0.1,1.7,0.3
		c0.4-0.5,0.8-1,1.1-1.5c-4-1.3-8.3-2.2-12.7-2.6C4.9,16,0,25.9,0,37.1c0,2.9,0.3,5.6,0.9,8.3C5,47.6,9.4,49.3,14,50.5
		C13.8,48.2,13.7,45.9,13.8,43.5z"/>
	<path class="st0" d="M50,2.3c1,2,1.9,4.1,2.7,6.3c0.1,0,0.1,0,0.2,0c2.4,0,4.4,2,4.4,4.4c0,1.7-1,3.2-2.3,3.9
		c0.6,3.4,0.9,7,0.9,10.6c0,0.9-0.1,1.7-0.1,2.6c3.3,4.1,6,8.7,8,13.5c3.8-2.3,7.2-5,10.3-8C73.5,20.3,63.6,7.4,50,2.3z"/>
	<path class="st0" d="M67.5,58.3c4-5.7,6.4-12.6,6.7-20c-2.9,2.7-6.2,5.1-9.6,7.1C66,49.5,67,53.8,67.5,58.3z"/>
	<path class="st0" d="M1.6,47.9c3,9.7,9.9,17.8,18.8,22.3c-3-5.4-5.1-11.4-6.1-17.6C9.9,51.4,5.6,49.9,1.6,47.9z"/>
	<path class="st0" d="M49,52.1c-4.8,8.5-12,15.8-20.7,21c2.8,0.7,5.7,1,8.7,1c11.4,0,21.7-5.2,28.5-13.3c-0.3-5-1.3-9.8-2.9-14.3
		C58.4,48.8,53.8,50.7,49,52.1z"/>
	<path class="st0" d="M37.9,0c-0.3,0-0.6,0-0.8,0C28.7,0,21,2.8,14.7,7.5C18.8,8,22.8,9,26.6,10.2C29.9,6.4,33.7,3,37.9,0z"/>
	<path class="st0" d="M27.4,12.5c-0.5,0.7-1,1.3-1.5,2c0.7,0.8,1.1,1.8,1.1,2.9c0,2.4-2,4.4-4.4,4.4c-0.4,0-0.7-0.1-1.1-0.1
		c-3.5,6.6-5.5,14-5.6,21.9c-0.1,2.5,0.1,5,0.4,7.5c3.2,0.7,6.6,1.2,10,1.5c0.5-1.9,2.2-3.4,4.3-3.4s3.8,1.5,4.3,3.4
		c4.4-0.3,8.7-1,12.7-2.1c3.3-6.1,5.4-12.8,6-19.9C46.9,22.5,37.9,16.2,27.4,12.5z"/>
	<path class="st0" d="M62,44.6c-1.7-4.1-3.9-8-6.5-11.6c-0.8,5.9-2.5,11.5-5.1,16.7C54.4,48.4,58.3,46.7,62,44.6z"/>
	<path class="st0" d="M30.5,57.9c-2.1,0-3.9-1.5-4.3-3.5c-3.3-0.2-6.5-0.7-9.7-1.4c1.1,6.6,3.6,12.9,7.1,18.6
		c0.7,0.3,1.4,0.5,2.1,0.7c8.5-4.8,15.6-11.6,20.5-19.6c-3.7,0.9-7.5,1.4-11.4,1.7C34.4,56.4,32.6,57.9,30.5,57.9z"/>
</g>
</svg>
